<svg width="24" height="24" viewBox="0 0 24 24" fill="none" xmlns="http://www.w3.org/2000/svg">
<g clip-path="url(#clip0_726_748)">
<path d="M12.6139 23.9995C9.23525 23.9995 6.06505 22.6899 3.68725 20.3122C1.30945 17.9345 2.95417e-07 14.7641 2.95417e-07 11.3854C-0.000504086 9.05459 0.644871 6.76923 1.86449 4.78298C3.08411 2.79673 4.83027 1.18729 6.90915 0.133296C7.12303 0.0242694 7.36428 -0.0193466 7.60279 0.00789313C7.84131 0.0351329 8.06651 0.132022 8.2503 0.286465C8.43409 0.440908 8.56831 0.646063 8.63622 0.876321C8.70413 1.10658 8.70271 1.35174 8.63215 1.5812C8.03893 3.4973 7.98063 5.53909 8.46354 7.48592C8.94645 9.43276 9.95222 11.2106 11.3721 12.6273C12.3911 13.6539 13.6036 14.4682 14.9394 15.023C16.2752 15.5778 17.7078 15.8621 19.1542 15.8595C20.2608 15.8603 21.3611 15.6944 22.4181 15.3672C22.6476 15.2966 22.8928 15.2951 23.123 15.363C23.3533 15.4309 23.5585 15.5652 23.713 15.749C23.8674 15.9328 23.9643 16.158 23.9916 16.3966C24.0188 16.6351 23.9751 16.8764 23.866 17.0902C22.812 19.1691 21.2026 20.9153 19.2164 22.1349C17.2301 23.3546 14.9448 24 12.6139 23.9995ZM6.8655 1.98855C5.25344 2.96939 3.92178 4.34966 2.99935 5.99584C2.07692 7.64202 1.59492 9.4984 1.6 11.3854C1.6 17.4585 6.5408 22.3995 12.6139 22.3995C14.501 22.4046 16.3573 21.9226 18.0035 21.0002C19.6497 20.0777 21.03 18.7461 22.0108 17.134C21.0742 17.3508 20.1158 17.46 19.1543 17.4596C17.4977 17.4628 15.8569 17.1373 14.3269 16.5021C12.797 15.8668 11.4082 14.9344 10.2409 13.7588C8.72463 12.2454 7.61899 10.3705 7.02839 8.31114C6.4378 6.25178 6.38174 4.07559 6.8655 1.98855Z" fill="#E2E3E7"/>
</g>
<defs>
<clipPath id="clip0_726_748">
<rect width="24" height="24" fill="white"/>
</clipPath>
</defs>
</svg>
