<svg width="26" height="26" viewBox="0 0 26 26" fill="none" xmlns="http://www.w3.org/2000/svg">
<path d="M13 25.5006C6.125 25.5006 0.5 19.8756 0.5 13.0006C0.5 7.1256 4.75 1.8756 10.5 0.750604C11 0.625604 11.625 0.875604 11.875 1.3756C12.125 1.8756 12 2.5006 11.625 2.8756C10.125 4.3756 9.25 6.5006 9.25 8.6256C9.25 13.1256 12.875 16.7506 17.375 16.7506C19.5 16.7506 21.625 15.8756 23.125 14.3756C23.5 14.0006 24.125 13.8756 24.625 14.1256C25.125 14.3756 25.375 14.8756 25.25 15.5006C24.125 21.2506 18.875 25.5006 13 25.5006ZM7.5 4.6256C4.75 6.5006 3 9.5006 3 13.0006C3 18.5006 7.5 23.0006 13 23.0006C16.5 23.0006 19.5 21.2506 21.375 18.5006C20.125 19.0006 18.75 19.2506 17.375 19.2506C11.5 19.2506 6.75 14.5006 6.75 8.6256C6.75 7.2506 7 5.8756 7.5 4.6256Z" fill="#E2E3E7"/>
</svg>
