<svg width="30" height="30" viewBox="0 0 30 30" fill="none" xmlns="http://www.w3.org/2000/svg">
<path d="M5.88175 20.6531C1.84596 18.2279 0 15.0005 0 15.0005C0 15.0005 4.61491 6.92289 14.997 6.92289C16.4991 6.92289 17.8805 7.03751 19.1474 7.38136L18.2243 8.30434C17.1868 8.18973 16.1491 8.07511 14.9969 8.07511C5.76707 8.07511 1.3814 15.0005 1.3814 15.0005C1.3814 15.0005 3.11274 17.7694 6.69005 19.8446L5.88175 20.6531ZM10.382 15.0005C10.382 15.3443 10.382 15.6942 10.4967 16.0381L11.5343 15.0005C11.5343 14.0775 11.8781 13.2691 12.5719 12.5754C13.2656 11.8817 14.1886 11.5378 14.997 11.5378L16.0346 10.5002C15.6907 10.3856 15.3409 10.3856 14.997 10.3856C12.4572 10.3856 10.382 12.4608 10.382 15.0005ZM24.1121 9.34798L23.3039 10.1563C26.8811 12.2315 28.6125 15.0005 28.6125 15.0005C28.6125 15.0005 24.2268 21.9259 14.997 21.9259C13.8447 21.9259 12.8071 21.8113 11.7695 21.6966L10.8465 22.6196C12.1134 22.9635 13.5009 23.0782 15.003 23.0782C25.3851 23.0782 30 15.0006 30 15.0006C30 15.0006 28.1479 11.7731 24.1121 9.34798ZM24.2147 4.64258L4.63904 24.2182L5.7792 25.3584L25.3609 5.7767L24.2147 4.64258ZM17.4221 17.4256C16.7284 18.1194 15.92 18.4632 14.997 18.4632L13.9594 19.5008C14.3032 19.6154 14.6531 19.6154 14.997 19.6154C17.5366 19.6154 19.6119 17.5402 19.6119 15.0005C19.6119 14.6566 19.6119 14.3067 19.4972 13.9629L18.4596 15.0005C18.4596 15.9235 18.1097 16.7319 17.4221 17.4256Z" fill="#E2E3E7"/>
</svg>
