<svg width="52" height="50" viewBox="0 0 52 50" fill="none" xmlns="http://www.w3.org/2000/svg">
<g clip-path="url(#clip0_1_14)">
<path d="M17.4666 28.5742H31.577V24.9161H17.4666V28.5742ZM17.4666 23.0871H42.2382V19.4291H17.4666V23.0871ZM17.4666 17.6001H42.2382V13.9421H17.4666V17.6001ZM12.2614 41.9869C11.258 41.9869 10.3801 41.6211 9.62751 40.8895C8.87496 40.1579 8.49868 39.3044 8.49868 38.3289V4.18732C8.49868 3.21185 8.87496 2.35831 9.62751 1.62671C10.3801 0.8951 11.258 0.529297 12.2614 0.529297H47.3806C48.384 0.529297 49.262 0.8951 50.0145 1.62671C50.7671 2.35831 51.1434 3.21185 51.1434 4.18732V38.3289C51.1434 39.3044 50.7671 40.1579 50.0145 40.8895C49.262 41.6211 48.384 41.9869 47.3806 41.9869H12.2614ZM12.2614 38.3289H47.3806V4.18732H12.2614V38.3289ZM4.73591 49.303C3.73251 49.303 2.85453 48.9372 2.10197 48.2056C1.34942 47.474 0.973145 46.6204 0.973145 45.645V7.84535H4.73591V45.645H43.6178V49.303H4.73591ZM12.2614 4.18732V38.3289V4.18732Z" fill="#2487CE"/>
</g>
<defs>
<clipPath id="clip0_1_14">
<rect width="51.087" height="50" fill="white" transform="translate(0.666504)"/>
</clipPath>
</defs>
</svg>
