<svg width="30" height="30" viewBox="0 0 30 30" fill="none" xmlns="http://www.w3.org/2000/svg">
<path d="M0.504395 14.4818C0.504395 14.1545 0.613485 13.8682 0.845304 13.6364C1.07712 13.4182 1.36349 13.3091 1.66349 13.3091H4.4453C4.75894 13.3091 5.01803 13.4182 5.23621 13.65C5.44076 13.8818 5.54985 14.1545 5.54985 14.4818C5.54985 14.8091 5.45439 15.0818 5.24985 15.3136C5.0453 15.5455 4.77258 15.6545 4.45894 15.6545H1.67712C1.36349 15.6545 1.09076 15.5455 0.85894 15.3136C0.627122 15.0818 0.504395 14.8091 0.504395 14.4818ZM4.40439 23.9318C4.40439 23.6182 4.51349 23.3455 4.71803 23.1L6.72258 21.15C6.92712 20.9318 7.19985 20.8364 7.52712 20.8364C7.8544 20.8364 8.12712 20.9455 8.3453 21.15C8.56349 21.3545 8.67258 21.6136 8.67258 21.9273C8.67258 22.2545 8.56349 22.5545 8.3453 22.8L6.40894 24.7364C5.84985 25.1727 5.29076 25.1727 4.73167 24.7364C4.51349 24.5182 4.40439 24.2455 4.40439 23.9318ZM4.40439 5.05909C4.40439 4.74545 4.51349 4.47273 4.71803 4.22727C4.99076 3.99545 5.27712 3.88636 5.59076 3.88636C5.89076 3.88636 6.16349 3.99545 6.3953 4.21364L8.3453 6.21818C8.56349 6.42273 8.67258 6.69545 8.67258 7.02273C8.67258 7.35 8.56349 7.62273 8.3453 7.84091C8.12712 8.05909 7.8544 8.16818 7.52712 8.16818C7.19985 8.16818 6.92712 8.05909 6.72258 7.84091L4.73167 5.89091C4.51349 5.67273 4.40439 5.38636 4.40439 5.05909ZM7.88167 14.4818C7.88167 13.2136 8.1953 12.0273 8.83621 10.9364C9.47712 9.84546 10.3362 8.97273 11.4408 8.33182C12.5453 7.69091 13.718 7.37727 14.9862 7.37727C15.9408 7.37727 16.8544 7.56818 17.7408 7.95C18.6135 8.33182 19.3771 8.83636 20.0044 9.47727C20.6453 10.1182 21.1499 10.8682 21.518 11.7409C21.8862 12.6136 22.0771 13.5409 22.0771 14.4955C22.0771 15.7773 21.7635 16.9636 21.1226 18.0545C20.4817 19.1455 19.6226 20.0045 18.5317 20.6455C17.4408 21.2864 16.2544 21.6 14.9726 21.6C13.6908 21.6 12.5044 21.2864 11.4135 20.6455C10.3226 20.0045 9.46349 19.1455 8.82258 18.0545C8.20894 16.95 7.88167 15.7636 7.88167 14.4818ZM10.1998 14.4818C10.1998 15.8182 10.6635 16.95 11.6044 17.8909C12.5317 18.8318 13.6635 19.3091 14.9998 19.3091C16.3362 19.3091 17.468 18.8318 18.4089 17.8909C19.3498 16.95 19.8271 15.8182 19.8271 14.4818C19.8271 13.1727 19.3498 12.0545 18.4089 11.1136C17.468 10.1864 16.3362 9.72273 14.9998 9.72273C13.6771 9.72273 12.5453 10.1864 11.618 11.1136C10.6635 12.0545 10.1998 13.1727 10.1998 14.4818ZM13.8271 25.0909C13.8271 24.7636 13.9362 24.4909 14.168 24.2727C14.3998 24.0545 14.6726 23.9455 14.9862 23.9455C15.3135 23.9455 15.5998 24.0545 15.818 24.2727C16.0362 24.4909 16.1453 24.7636 16.1453 25.0909V27.8045C16.1453 28.1318 16.0362 28.4182 15.8044 28.65C15.5726 28.8818 15.2998 28.9909 14.9862 28.9909C14.6726 28.9909 14.3862 28.8818 14.168 28.65C13.9362 28.4182 13.8271 28.1318 13.8271 27.8045V25.0909ZM13.8271 3.95455V1.17273C13.8271 0.859091 13.9362 0.586364 14.168 0.354546C14.3998 0.122728 14.6726 0 14.9998 0C15.3271 0 15.5862 0.109091 15.818 0.340909C16.0498 0.572727 16.1589 0.845454 16.1589 1.15909V3.95455C16.1589 4.26818 16.0498 4.52727 15.818 4.74545C15.5862 4.96364 15.3135 5.05909 14.9998 5.05909C14.6862 5.05909 14.3998 4.95 14.1817 4.74545C13.9635 4.54091 13.8271 4.26818 13.8271 3.95455ZM21.3544 21.9273C21.3544 21.6136 21.4635 21.3545 21.668 21.1636C21.8726 20.9455 22.1317 20.85 22.4317 20.85C22.7589 20.85 23.0317 20.9591 23.2498 21.1636L25.2408 23.1136C25.4589 23.3455 25.568 23.6318 25.568 23.9455C25.568 24.2591 25.4589 24.5318 25.2408 24.75C24.6953 25.1727 24.1498 25.1727 23.6044 24.75L21.668 22.8136C21.4635 22.5682 21.3544 22.2818 21.3544 21.9273ZM21.3544 7.03636C21.3544 6.69545 21.4635 6.42273 21.668 6.23182L23.6044 4.22727C23.8362 4.00909 24.1089 3.9 24.4089 3.9C24.7362 3.9 25.0089 4.00909 25.2271 4.24091C25.4589 4.47273 25.568 4.74545 25.568 5.05909C25.568 5.4 25.4589 5.68636 25.2408 5.90455L23.2498 7.85455C23.0044 8.07273 22.7317 8.18182 22.4317 8.18182C22.118 8.18182 21.8726 8.07273 21.668 7.85455C21.4635 7.63636 21.3544 7.36364 21.3544 7.03636ZM24.4362 14.4818C24.4362 14.1545 24.5453 13.8818 24.7635 13.6364C24.9817 13.4182 25.2408 13.3091 25.5408 13.3091H28.2953C28.6089 13.3091 28.8817 13.4318 29.1135 13.6636C29.3453 13.8955 29.468 14.1682 29.468 14.4818C29.468 14.7955 29.3453 15.0682 29.1135 15.3C28.8817 15.5318 28.6089 15.6409 28.2953 15.6409H25.5408C25.2271 15.6409 24.9544 15.5318 24.7498 15.3C24.5453 15.0682 24.4362 14.8091 24.4362 14.4818Z" fill="#E2E3E7"/>
</svg>
