<svg width="52" height="50" viewBox="0 0 52 50" fill="none" xmlns="http://www.w3.org/2000/svg">
<g clip-path="url(#clip0_1_45)">
<path d="M3.40789 45.9572V15.4512C2.82919 15.3685 2.27115 14.9552 1.73379 14.2111C1.19642 13.4671 0.927734 12.661 0.927734 11.793V3.91848C0.927734 2.96775 1.29976 2.11003 2.04381 1.34532C2.78785 0.5806 3.65591 0.198242 4.64797 0.198242H46.8107C47.7614 0.198242 48.6191 0.5806 49.3838 1.34532C50.1486 2.11003 50.5309 2.96775 50.5309 3.91848V11.793C50.5309 12.661 50.2622 13.4671 49.7249 14.2111C49.1875 14.9552 48.6295 15.3685 48.0508 15.4512V45.9572C48.0508 46.9079 47.6684 47.7863 46.9037 48.5923C46.139 49.3984 45.2812 49.8014 44.3305 49.8014H7.12813C6.13607 49.8014 5.26801 49.3984 4.52397 48.5923C3.77992 47.7863 3.40789 46.9079 3.40789 45.9572ZM7.12813 15.5132V46.0812H44.3305V15.5132H7.12813ZM46.8107 11.793V3.91848H4.64797V11.793H46.8107ZM18.2888 28.5341H33.1698V24.8138H18.2888V28.5341ZM7.12813 46.0812V15.5132V46.0812Z" fill="#2487CE"/>
</g>
<defs>
<clipPath id="clip0_1_45">
<rect width="51.1905" height="50" fill="white" transform="translate(0.333008)"/>
</clipPath>
</defs>
</svg>
