<svg width="30" height="30" viewBox="0 0 30 30" fill="none" xmlns="http://www.w3.org/2000/svg">
<path d="M15 16.1553C15.6373 16.1553 16.1539 15.6388 16.1539 15.0015C16.1539 14.3643 15.6373 13.8477 15 13.8477C14.3628 13.8477 13.8462 14.3643 13.8462 15.0015C13.8462 15.6388 14.3628 16.1553 15 16.1553Z" fill="#E2E3E7"/>
<path d="M15.0002 10.3848C12.4617 10.3848 10.3848 12.4617 10.3848 15.0002C10.3848 17.5386 12.4617 19.6155 15.0002 19.6155C17.5386 19.6155 19.6155 17.5386 19.6155 15.0002C19.6155 12.4617 17.5386 10.3848 15.0002 10.3848ZM15.0002 18.4617C13.0386 18.4617 11.5386 16.9617 11.5386 15.0002C11.5386 13.0386 13.0386 11.5386 15.0002 11.5386C16.9617 11.5386 18.4617 13.0386 18.4617 15.0002C18.4617 16.9617 16.9617 18.4617 15.0002 18.4617Z" fill="#E2E3E7"/>
<path d="M15 6.92383C4.61538 6.92383 0 15.0008 0 15.0008C0 15.0008 4.61538 23.0777 15 23.0777C25.3846 23.0777 30 15.0008 30 15.0008C30 15.0008 25.3846 6.92383 15 6.92383ZM15 21.9238C5.76923 21.9238 1.38462 15.0008 1.38462 15.0008C1.38462 15.0008 5.76923 8.07767 15 8.07767C24.2308 8.07767 28.6154 15.0008 28.6154 15.0008C28.6154 15.0008 24.2308 21.9238 15 21.9238Z" fill="#E2E3E7"/>
</svg>
