<?xml version="1.0" encoding="UTF-8"?>
<svg xmlns="http://www.w3.org/2000/svg" xmlns:xlink="http://www.w3.org/1999/xlink" width="35px" height="35px" viewBox="0 0 35 35" version="1.1">
<g id="surface1">
<path style="fill-rule:nonzero;fill:rgb(100%,77.254902%,20%);fill-opacity:1;stroke-width:2;stroke-linecap:round;stroke-linejoin:round;stroke:rgb(0%,0%,0%);stroke-opacity:1;stroke-miterlimit:4;" d="M 69.308036 19.83817 C 66.646205 15 63.582589 6.395089 60 5.290179 C 66.177455 5.357143 73.995536 9.107143 75.552455 14.296875 C 77.477679 8.337054 82.566964 8.337054 85.814732 8.11942 C 80.892857 12.522321 80.558036 16.925223 80.558036 18.917411 C 80.558036 20.909598 70.479911 21.997768 69.308036 19.83817 Z M 69.308036 19.83817 " transform="matrix(0.233333,0,0,0.233333,0,0)"/>
<path style="fill-rule:nonzero;fill:rgb(100%,77.254902%,20%);fill-opacity:1;stroke-width:4;stroke-linecap:butt;stroke-linejoin:miter;stroke:rgb(0%,0%,0%);stroke-opacity:1;stroke-miterlimit:10;" d="M 136.238839 94.235491 C 136.238839 122.460938 100.764509 138.331473 75 138.331473 C 49.235491 138.331473 13.761161 122.477679 13.761161 94.235491 C 13.761161 81.997768 21.997768 73.995536 28.342634 61.004464 C 38.102679 40.998884 42.271205 17.176339 75 17.176339 C 107.728795 17.176339 111.897321 40.998884 121.657366 61.004464 C 128.002232 73.995536 136.238839 81.997768 136.238839 94.235491 Z M 136.238839 94.235491 " transform="matrix(0.233333,0,0,0.233333,0,0)"/>
<path style="fill-rule:nonzero;fill:rgb(100%,100%,100%);fill-opacity:1;stroke-width:2;stroke-linecap:butt;stroke-linejoin:miter;stroke:rgb(0%,0%,0%);stroke-opacity:1;stroke-miterlimit:10;" d="M 68.414371 60.745363 C 68.421807 55.163181 61.285035 50.622812 52.471532 50.623523 C 43.677492 50.637715 36.536873 55.166897 36.545909 60.746089 C 36.541463 66.344743 43.675245 70.86864 52.472275 70.87092 C 61.285778 70.870209 68.426397 66.341026 68.414371 60.745363 Z M 68.414371 60.745363 " transform="matrix(0.0416804,-0.22958,0.22958,0.0416804,-3.887333,23.690333)"/>
<path style=" stroke:none;fill-rule:nonzero;fill:rgb(0%,0%,0%);fill-opacity:1;" d="M 12.515625 13.960938 C 11.832031 13.839844 11.148438 14.453125 10.988281 15.335938 C 10.828125 16.21875 11.253906 17.035156 11.9375 17.15625 C 12.621094 17.28125 13.304688 16.667969 13.464844 15.785156 C 13.625 14.902344 13.199219 14.085938 12.515625 13.960938 Z M 12.515625 13.960938 "/>
<path style="fill-rule:nonzero;fill:rgb(100%,100%,100%);fill-opacity:1;stroke-width:2;stroke-linecap:butt;stroke-linejoin:miter;stroke:rgb(0%,0%,0%);stroke-opacity:1;stroke-miterlimit:10;" d="M 107.646985 60.751459 C 107.644705 51.954428 103.107327 44.801185 97.525145 44.80862 C 91.926491 44.813066 87.397309 51.953685 87.399588 60.750716 C 87.401868 69.547746 91.925765 76.681528 97.521428 76.693554 C 103.10361 76.686118 107.649264 69.548489 107.646985 60.751459 Z M 107.646985 60.751459 " transform="matrix(0.22958,-0.0416804,0.0416804,0.22958,-2.167667,4.293333)"/>
<path style=" stroke:none;fill-rule:nonzero;fill:rgb(0%,0%,0%);fill-opacity:1;" d="M 24.007812 15.335938 C 23.847656 14.453125 23.164062 13.839844 22.480469 13.964844 C 21.796875 14.089844 21.375 14.902344 21.535156 15.785156 C 21.695312 16.667969 22.378906 17.285156 23.0625 17.160156 C 23.746094 17.035156 24.167969 16.21875 24.007812 15.335938 Z M 24.007812 15.335938 "/>
<path style="fill-rule:nonzero;fill:rgb(91.764706%,40.392157%,14.901961%);fill-opacity:1;stroke-width:4;stroke-linecap:butt;stroke-linejoin:miter;stroke:rgb(0%,0%,0%);stroke-opacity:1;stroke-miterlimit:10;" d="M 118.828125 114.659598 C 110.089286 128.186384 112.533482 143.655134 72.873884 143.655134 C 36.344866 143.655134 38.604911 128.136161 30.552455 114.659598 C 25.563616 106.238839 20.691964 99.107143 24.927455 95.390625 C 29.146205 91.674107 41.56808 95.122768 50.357143 95.122768 C 59.146205 95.122768 60.284598 81.227679 72.873884 81.227679 C 86.56808 81.227679 87.790179 95.122768 97.332589 95.122768 C 106.875 95.122768 120.234375 91.590402 124.955357 95.390625 C 129.676339 99.190848 124.252232 106.238839 118.828125 114.659598 Z M 118.828125 114.659598 " transform="matrix(0.233333,0,0,0.233333,0,0)"/>
<path style=" stroke:none;fill-rule:nonzero;fill:rgb(0%,0%,0%);fill-opacity:1;" d="M 13.671875 24.71875 C 13.273438 24.019531 13.382812 23.496094 13.761719 23.28125 C 14.140625 23.0625 14.648438 23.234375 15.046875 23.929688 C 15.445312 24.625 15.585938 25.585938 15.207031 25.796875 C 14.824219 26.007812 14.074219 25.414062 13.671875 24.71875 Z M 13.671875 24.71875 "/>
<path style=" stroke:none;fill-rule:nonzero;fill:rgb(0%,0%,0%);fill-opacity:1;" d="M 21.328125 24.71875 C 21.726562 24.019531 21.617188 23.496094 21.238281 23.28125 C 20.859375 23.0625 20.351562 23.234375 19.953125 23.929688 C 19.554688 24.625 19.414062 25.585938 19.792969 25.796875 C 20.175781 26.007812 20.925781 25.414062 21.328125 24.71875 Z M 21.328125 24.71875 "/>
</g>
</svg>
