<svg width="50" height="50" viewBox="0 0 50 50" fill="none" xmlns="http://www.w3.org/2000/svg">
<path d="M18.75 0.961914C16.2636 0.961914 13.8791 1.91164 12.1209 3.60216C10.3628 5.29269 9.37504 7.58553 9.37504 9.97629C9.37504 12.3671 10.3628 14.6599 12.1209 16.3504C13.8791 18.0409 16.2636 18.9907 18.75 18.9907C21.2364 18.9907 23.621 18.0409 25.3792 16.3504C27.1373 14.6599 28.125 12.3671 28.125 9.97629C28.125 7.58553 27.1373 5.29269 25.3792 3.60216C23.621 1.91164 21.2364 0.961914 18.75 0.961914V0.961914ZM14.0625 21.9955C12.2147 21.9915 10.3842 22.3385 8.67618 23.0167C6.96818 23.6948 5.4163 24.6906 4.10966 25.947C2.80301 27.2034 1.76733 28.6956 1.06209 30.3379C0.35684 31.9802 -0.00408525 33.7402 3.48805e-05 35.517V37.0194C3.48805e-05 40.0242 3.12504 40.0242 3.12504 40.0242H21.875V27.6294C21.875 25.1355 23.7094 22.96 26.1094 22.2509C25.2292 22.0846 24.3346 21.999 23.4375 21.9955H14.0625ZM28.125 28.005V40.0242H31.25V28.005H28.125Z" fill="#2487CE"/>
<path d="M27.7342 25.0003C27.3737 24.9954 27.0158 25.0601 26.6818 25.1905C26.3478 25.3209 26.0443 25.5144 25.7894 25.7595C25.5345 26.0046 25.3333 26.2964 25.1976 26.6176C25.062 26.9388 24.9947 27.2828 24.9998 27.6294V46.4094C24.9998 47.8878 26.1967 49.0386 27.7342 49.0386H47.2654C47.6259 49.0434 47.9837 48.9788 48.3177 48.8483C48.6518 48.7179 48.9552 48.5245 49.2101 48.2793C49.4651 48.0342 49.6663 47.7424 49.8019 47.4213C49.9375 47.1001 50.0048 46.756 49.9998 46.4094V27.6294C50.0048 27.2828 49.9375 26.9388 49.8019 26.6176C49.6663 26.2964 49.4651 26.0046 49.2101 25.7595C48.9552 25.5144 48.6518 25.3209 48.3177 25.1905C47.9837 25.0601 47.6259 24.9954 47.2654 25.0003H27.7342ZM34.3748 28.005H40.6248V31.0098H34.3748V28.005ZM34.3748 34.0146H40.6248V46.0338H34.3748V34.0146Z" fill="#2487CE"/>
</svg>
