<svg width="60" height="50" viewBox="0 0 60 50" fill="none" xmlns="http://www.w3.org/2000/svg">
<path d="M20.1744 49.5098C18.9489 49.5098 17.8766 49.0503 16.9575 48.1312C16.0384 47.212 15.5788 46.1397 15.5788 44.9143V37.2549H25.0764V27.5276C23.136 27.6808 21.1956 27.4127 19.2553 26.7234C17.3149 26.034 15.5788 24.949 14.047 23.4682V19.0258H10.2173L0.183594 8.99207C2.02183 7.25596 4.2175 5.83899 6.7706 4.74115C9.32371 3.64332 11.9279 3.0944 14.5831 3.0944C16.115 3.0944 17.8638 3.33695 19.8297 3.82204C21.7956 4.30713 23.5445 5.08582 25.0764 6.15813V0.490234H59.9262V41.4676C59.9262 43.7143 59.1475 45.6164 57.5901 47.1737C56.0328 48.7311 54.1307 49.5098 51.884 49.5098H20.1744ZM29.672 37.2549H48.4373V41.4676C48.4373 42.4888 48.7564 43.3186 49.3947 43.9568C50.033 44.5951 50.8627 44.9143 51.884 44.9143C52.9052 44.9143 53.735 44.5951 54.3732 43.9568C55.0115 43.3186 55.3307 42.4888 55.3307 41.4676V5.08582H29.672V9.45163L48.1309 27.9106V31.2041H44.8374L35.1867 21.5533L33.8846 23.0852C33.2208 23.8511 32.557 24.4384 31.8932 24.8469C31.2293 25.2553 30.4889 25.6383 29.672 25.9957V37.2549ZM12.2853 14.4302H18.6425V21.247C19.5106 21.8087 20.3659 22.2299 21.2084 22.5108C22.0509 22.7916 22.9062 22.932 23.7743 22.932C25.0508 22.932 26.3529 22.5874 27.6805 21.898C29.0081 21.2087 29.9783 20.5066 30.5911 19.7917L31.8932 18.2598L26.6082 12.9749C24.9742 11.3409 23.136 10.0516 21.0935 9.10696C19.051 8.16231 16.8809 7.68999 14.5831 7.68999C13.2044 7.68999 11.9534 7.85594 10.83 8.18784C9.70667 8.51975 8.55778 8.96654 7.38335 9.52822L12.2853 14.4302ZM20.1744 44.9143H44.914C44.6076 44.6079 44.3523 44.1866 44.1481 43.6505C43.9438 43.1143 43.8417 42.5143 43.8417 41.8505H20.1744V44.9143ZM20.1744 44.9143V41.8505V44.9143Z" fill="#2487CE"/>
</svg>
