<svg width="50" height="50" viewBox="0 0 50 50" fill="none" xmlns="http://www.w3.org/2000/svg">
<g clip-path="url(#clip0_66_400)">
<path d="M40.3927 0.052046L40.5682 0.227539L40.3927 0.0520463C40.1993 0.245443 40.0906 0.507746 40.0906 0.78125V3.46875C40.0906 3.74225 40.1993 4.00456 40.3927 4.19795C40.5861 4.39135 40.8484 4.5 41.1219 4.5H45.2979V6.43542H33.4375C33.164 6.43542 32.9017 6.54407 32.7083 6.73746C32.5149 6.93086 32.4062 7.19316 32.4062 7.46667V12.1083C32.4062 12.3818 32.5149 12.6441 32.7083 12.8375C32.9017 13.0309 33.164 13.1396 33.4375 13.1396H33.7354V15.1042C33.7354 15.3777 33.8441 15.64 34.0375 15.8334C34.2309 16.0268 34.4932 16.1354 34.7667 16.1354H40.3094C40.5829 16.1354 40.8452 16.0268 41.0386 15.8334C41.232 15.64 41.3406 15.3777 41.3406 15.1042V13.1396H45.301V19.1792C45.301 19.4527 45.4097 19.715 45.6031 19.9084C45.7965 20.1018 46.0588 20.2104 46.3323 20.2104H49.2188C49.4923 20.2104 49.7546 20.1018 49.948 19.9084C50.1414 19.715 50.25 19.4527 50.25 19.1792C50.25 18.9057 50.1414 18.6434 49.948 18.45C49.7546 18.2566 49.4923 18.1479 49.2188 18.1479H47.3604V12.1083C47.3604 11.8348 47.2518 11.5725 47.0584 11.3791C46.865 11.1857 46.6027 11.0771 46.3292 11.0771H34.4656V8.49792H49.2156C49.4891 8.49792 49.7514 8.38927 49.9448 8.19587C50.1382 8.00248 50.2469 7.74017 50.2469 7.46667C50.2469 7.19316 50.1382 6.93086 49.9448 6.73746C49.7514 6.54407 49.4891 6.43542 49.2156 6.43542H47.3604V4.5H49.2188C49.4923 4.5 49.7546 4.39135 49.948 4.19795C50.1414 4.00456 50.25 3.74225 50.25 3.46875C50.25 3.19525 50.1414 2.93294 49.948 2.73955C49.7546 2.54615 49.4923 2.4375 49.2188 2.4375H42.1531V1.8125H49.2188C49.4923 1.8125 49.7546 1.70385 49.948 1.51045C50.1414 1.31706 50.25 1.05475 50.25 0.78125C50.25 0.507747 50.1414 0.245444 49.948 0.052046C49.7546 -0.141351 49.4923 -0.25 49.2188 -0.25H41.1219C40.8484 -0.25 40.5861 -0.141351 40.3927 0.052046ZM39.275 14.0719H35.7948V13.1396H39.275V14.0719Z" fill="#2487CE" stroke="#2487CE" stroke-width="0.5"/>
<mask id="path-2-outside-1_66_400" maskUnits="userSpaceOnUse" x="-1.0166" y="24.1299" width="47" height="25" fill="black">
<rect fill="white" x="-1.0166" y="24.1299" width="47" height="25"/>
<path d="M43.0366 32.0094C42.7282 31.8699 42.3947 31.7944 42.0563 31.7876C41.7179 31.7808 41.3816 31.8428 41.0679 31.9698C40.8054 32.074 40.5147 32.1907 40.2085 32.3105C40.0158 31.9446 39.7354 31.6322 39.3924 31.4014C39.0493 31.1705 38.6544 31.0283 38.2429 30.9875C36.6033 30.8334 34.2158 30.5782 32.1606 30.2428C32.0593 30.2262 31.9557 30.2298 31.8558 30.2532C31.7559 30.2767 31.6616 30.3196 31.5782 30.3796C31.4099 30.5006 31.2966 30.6835 31.2632 30.8881C31.2298 31.0926 31.279 31.3021 31.4 31.4704C31.521 31.6387 31.7039 31.752 31.9085 31.7855C34.0064 32.1271 36.4325 32.3865 38.095 32.5438C38.3416 32.5693 38.5686 32.6895 38.7283 32.8792C36.766 33.665 34.7505 34.3111 32.697 34.8125C31.9314 34.9605 29.0762 35.2678 24.6564 35.6782C24.3227 35.7015 23.9926 35.597 23.7332 35.3858C23.4738 35.1746 23.3045 34.8726 23.2597 34.5411C23.2148 34.2096 23.2979 33.8735 23.4919 33.601C23.6859 33.3285 23.9764 33.1401 24.3043 33.074L28.5856 32.3105C31.797 31.7375 31.5325 27.1417 31.5189 26.9448C31.5117 26.8352 31.4814 26.7284 31.4301 26.6313C31.3787 26.5342 31.3075 26.449 31.2209 26.3814C31.1344 26.3137 31.0346 26.2651 30.928 26.2387C30.8213 26.2123 30.7104 26.2087 30.6023 26.2282L21.0283 27.9365C20.9893 27.9434 20.951 27.9535 20.9137 27.9667L13.9908 30.3125L1.07413 25.1938C0.978098 25.1524 0.874728 25.1306 0.770146 25.1299C0.665563 25.1292 0.561898 25.1494 0.465295 25.1895C0.368692 25.2296 0.281119 25.2886 0.207768 25.3632C0.134416 25.4377 0.0767791 25.5263 0.0382742 25.6235C-0.000230694 25.7207 -0.0188197 25.8247 -0.0163908 25.9293C-0.0139619 26.0338 0.00943547 26.1368 0.0524142 26.2322C0.0953929 26.3275 0.157078 26.4133 0.233812 26.4843C0.310547 26.5554 0.400768 26.6103 0.499127 26.6459L13.6825 31.875C13.8551 31.9416 14.0455 31.946 14.221 31.8875L21.3606 29.4657L29.9398 27.9334C29.8595 28.9657 29.5356 30.5542 28.3116 30.773L24.0293 31.5365C23.2987 31.6675 22.6469 32.0756 22.2099 32.6756C21.773 33.2756 21.5847 34.0212 21.6842 34.7568C21.7838 35.4923 22.1637 36.161 22.7444 36.6233C23.3252 37.0855 24.0621 37.3056 24.8012 37.2375C27.9637 36.9438 31.9522 36.5521 32.995 36.35C35.946 35.5853 38.8376 34.6074 41.647 33.424C41.767 33.3752 41.8957 33.3514 42.0252 33.3541C42.1547 33.3568 42.2823 33.3859 42.4002 33.4396C42.5689 33.5143 42.7129 33.6354 42.8154 33.7888C42.918 33.9422 42.9749 34.1215 42.9795 34.306C42.9841 34.4904 42.9362 34.6724 42.8413 34.8307C42.7465 34.989 42.6087 35.117 42.4439 35.2L34.2356 39.3563L27.1356 40.0563C26.9284 40.0662 26.7336 40.1581 26.5941 40.3116C26.4547 40.4652 26.3819 40.6678 26.3918 40.875C26.4018 41.0822 26.4936 41.277 26.6472 41.4165C26.8007 41.556 27.0034 41.6287 27.2106 41.6188C27.2363 41.6203 27.262 41.6203 27.2877 41.6188L34.5345 40.9053C34.6311 40.896 34.7251 40.8688 34.8116 40.825L40.9168 37.7323L41.1835 38.0917C41.2434 38.172 41.2857 38.264 41.3077 38.3617C41.3297 38.4595 41.3309 38.5607 41.3113 38.6589C41.2916 38.7572 41.2516 38.8502 41.1937 38.9319C41.1358 39.0136 41.0613 39.0823 40.9752 39.1334L35.9116 42.1896L31.521 43.2917C31.3367 43.3384 31.1757 43.4508 31.0683 43.6077C30.9609 43.7646 30.9144 43.9553 30.9375 44.144C30.9606 44.3328 31.0518 44.5066 31.1939 44.6329C31.3361 44.7593 31.5194 44.8294 31.7095 44.8302C31.7762 44.8261 31.8421 44.8131 31.9054 44.7917L36.4095 43.6615C36.4829 43.6419 36.5531 43.6117 36.6179 43.5719L40.1783 41.4219C40.289 41.6906 40.2955 41.9909 40.1965 42.2641C40.0975 42.5373 39.9 42.7637 39.6429 42.899L34.1668 45.8032C32.9783 45.9615 24.1866 47.0709 20.5366 45.7282C18.0033 44.7969 11.6575 39.8177 11.5939 39.7667C11.4509 39.6533 11.2722 39.5942 11.0898 39.6L0.762669 39.8803C0.659837 39.8828 0.55852 39.9056 0.464518 39.9474C0.370516 39.9892 0.285675 40.0491 0.21485 40.1237C0.144026 40.1983 0.0886082 40.2861 0.0517704 40.3821C0.0149326 40.4782 -0.00260252 40.5805 0.00016886 40.6834C0.0101138 40.8891 0.099262 41.0831 0.248956 41.2246C0.39865 41.3662 0.597286 41.4443 0.803294 41.4428L10.8481 41.1688C12.0377 42.0938 17.4866 46.273 19.9939 47.1959C21.971 47.7695 24.0274 48.0221 26.0845 47.9438C28.9071 47.916 31.7251 47.7115 34.522 47.3313C34.6113 47.3193 34.6978 47.2914 34.7773 47.249L40.3845 44.2813C40.9853 43.9653 41.4464 43.4365 41.6776 42.7984C41.9088 42.1602 41.8935 41.4587 41.6345 40.8313L41.5418 40.6042L41.7908 40.4542C42.0624 40.2904 42.2968 40.0715 42.4789 39.8118C42.6609 39.552 42.7867 39.2571 42.8481 38.9459C42.9095 38.6347 42.9052 38.3141 42.8354 38.0046C42.7656 37.6952 42.6319 37.4037 42.4429 37.149L42.3387 37.0053L43.1575 36.5886C43.7111 36.3076 44.1425 35.8335 44.3704 35.256C44.5982 34.6785 44.6066 34.0375 44.3939 33.4542C44.2774 33.134 44.097 32.8408 43.8636 32.5924C43.6303 32.3441 43.349 32.1457 43.0366 32.0094Z"/>
</mask>
<path d="M43.0366 32.0094C42.7282 31.8699 42.3947 31.7944 42.0563 31.7876C41.7179 31.7808 41.3816 31.8428 41.0679 31.9698C40.8054 32.074 40.5147 32.1907 40.2085 32.3105C40.0158 31.9446 39.7354 31.6322 39.3924 31.4014C39.0493 31.1705 38.6544 31.0283 38.2429 30.9875C36.6033 30.8334 34.2158 30.5782 32.1606 30.2428C32.0593 30.2262 31.9557 30.2298 31.8558 30.2532C31.7559 30.2767 31.6616 30.3196 31.5782 30.3796C31.4099 30.5006 31.2966 30.6835 31.2632 30.8881C31.2298 31.0926 31.279 31.3021 31.4 31.4704C31.521 31.6387 31.7039 31.752 31.9085 31.7855C34.0064 32.1271 36.4325 32.3865 38.095 32.5438C38.3416 32.5693 38.5686 32.6895 38.7283 32.8792C36.766 33.665 34.7505 34.3111 32.697 34.8125C31.9314 34.9605 29.0762 35.2678 24.6564 35.6782C24.3227 35.7015 23.9926 35.597 23.7332 35.3858C23.4738 35.1746 23.3045 34.8726 23.2597 34.5411C23.2148 34.2096 23.2979 33.8735 23.4919 33.601C23.6859 33.3285 23.9764 33.1401 24.3043 33.074L28.5856 32.3105C31.797 31.7375 31.5325 27.1417 31.5189 26.9448C31.5117 26.8352 31.4814 26.7284 31.4301 26.6313C31.3787 26.5342 31.3075 26.449 31.2209 26.3814C31.1344 26.3137 31.0346 26.2651 30.928 26.2387C30.8213 26.2123 30.7104 26.2087 30.6023 26.2282L21.0283 27.9365C20.9893 27.9434 20.951 27.9535 20.9137 27.9667L13.9908 30.3125L1.07413 25.1938C0.978098 25.1524 0.874728 25.1306 0.770146 25.1299C0.665563 25.1292 0.561898 25.1494 0.465295 25.1895C0.368692 25.2296 0.281119 25.2886 0.207768 25.3632C0.134416 25.4377 0.0767791 25.5263 0.0382742 25.6235C-0.000230694 25.7207 -0.0188197 25.8247 -0.0163908 25.9293C-0.0139619 26.0338 0.00943547 26.1368 0.0524142 26.2322C0.0953929 26.3275 0.157078 26.4133 0.233812 26.4843C0.310547 26.5554 0.400768 26.6103 0.499127 26.6459L13.6825 31.875C13.8551 31.9416 14.0455 31.946 14.221 31.8875L21.3606 29.4657L29.9398 27.9334C29.8595 28.9657 29.5356 30.5542 28.3116 30.773L24.0293 31.5365C23.2987 31.6675 22.6469 32.0756 22.2099 32.6756C21.773 33.2756 21.5847 34.0212 21.6842 34.7568C21.7838 35.4923 22.1637 36.161 22.7444 36.6233C23.3252 37.0855 24.0621 37.3056 24.8012 37.2375C27.9637 36.9438 31.9522 36.5521 32.995 36.35C35.946 35.5853 38.8376 34.6074 41.647 33.424C41.767 33.3752 41.8957 33.3514 42.0252 33.3541C42.1547 33.3568 42.2823 33.3859 42.4002 33.4396C42.5689 33.5143 42.7129 33.6354 42.8154 33.7888C42.918 33.9422 42.9749 34.1215 42.9795 34.306C42.9841 34.4904 42.9362 34.6724 42.8413 34.8307C42.7465 34.989 42.6087 35.117 42.4439 35.2L34.2356 39.3563L27.1356 40.0563C26.9284 40.0662 26.7336 40.1581 26.5941 40.3116C26.4547 40.4652 26.3819 40.6678 26.3918 40.875C26.4018 41.0822 26.4936 41.277 26.6472 41.4165C26.8007 41.556 27.0034 41.6287 27.2106 41.6188C27.2363 41.6203 27.262 41.6203 27.2877 41.6188L34.5345 40.9053C34.6311 40.896 34.7251 40.8688 34.8116 40.825L40.9168 37.7323L41.1835 38.0917C41.2434 38.172 41.2857 38.264 41.3077 38.3617C41.3297 38.4595 41.3309 38.5607 41.3113 38.6589C41.2916 38.7572 41.2516 38.8502 41.1937 38.9319C41.1358 39.0136 41.0613 39.0823 40.9752 39.1334L35.9116 42.1896L31.521 43.2917C31.3367 43.3384 31.1757 43.4508 31.0683 43.6077C30.9609 43.7646 30.9144 43.9553 30.9375 44.144C30.9606 44.3328 31.0518 44.5066 31.1939 44.6329C31.3361 44.7593 31.5194 44.8294 31.7095 44.8302C31.7762 44.8261 31.8421 44.8131 31.9054 44.7917L36.4095 43.6615C36.4829 43.6419 36.5531 43.6117 36.6179 43.5719L40.1783 41.4219C40.289 41.6906 40.2955 41.9909 40.1965 42.2641C40.0975 42.5373 39.9 42.7637 39.6429 42.899L34.1668 45.8032C32.9783 45.9615 24.1866 47.0709 20.5366 45.7282C18.0033 44.7969 11.6575 39.8177 11.5939 39.7667C11.4509 39.6533 11.2722 39.5942 11.0898 39.6L0.762669 39.8803C0.659837 39.8828 0.55852 39.9056 0.464518 39.9474C0.370516 39.9892 0.285675 40.0491 0.21485 40.1237C0.144026 40.1983 0.0886082 40.2861 0.0517704 40.3821C0.0149326 40.4782 -0.00260252 40.5805 0.00016886 40.6834C0.0101138 40.8891 0.099262 41.0831 0.248956 41.2246C0.39865 41.3662 0.597286 41.4443 0.803294 41.4428L10.8481 41.1688C12.0377 42.0938 17.4866 46.273 19.9939 47.1959C21.971 47.7695 24.0274 48.0221 26.0845 47.9438C28.9071 47.916 31.7251 47.7115 34.522 47.3313C34.6113 47.3193 34.6978 47.2914 34.7773 47.249L40.3845 44.2813C40.9853 43.9653 41.4464 43.4365 41.6776 42.7984C41.9088 42.1602 41.8935 41.4587 41.6345 40.8313L41.5418 40.6042L41.7908 40.4542C42.0624 40.2904 42.2968 40.0715 42.4789 39.8118C42.6609 39.552 42.7867 39.2571 42.8481 38.9459C42.9095 38.6347 42.9052 38.3141 42.8354 38.0046C42.7656 37.6952 42.6319 37.4037 42.4429 37.149L42.3387 37.0053L43.1575 36.5886C43.7111 36.3076 44.1425 35.8335 44.3704 35.256C44.5982 34.6785 44.6066 34.0375 44.3939 33.4542C44.2774 33.134 44.097 32.8408 43.8636 32.5924C43.6303 32.3441 43.349 32.1457 43.0366 32.0094Z" fill="#2487CE"/>
<path d="M43.0366 32.0094C42.7282 31.8699 42.3947 31.7944 42.0563 31.7876C41.7179 31.7808 41.3816 31.8428 41.0679 31.9698C40.8054 32.074 40.5147 32.1907 40.2085 32.3105C40.0158 31.9446 39.7354 31.6322 39.3924 31.4014C39.0493 31.1705 38.6544 31.0283 38.2429 30.9875C36.6033 30.8334 34.2158 30.5782 32.1606 30.2428C32.0593 30.2262 31.9557 30.2298 31.8558 30.2532C31.7559 30.2767 31.6616 30.3196 31.5782 30.3796C31.4099 30.5006 31.2966 30.6835 31.2632 30.8881C31.2298 31.0926 31.279 31.3021 31.4 31.4704C31.521 31.6387 31.7039 31.752 31.9085 31.7855C34.0064 32.1271 36.4325 32.3865 38.095 32.5438C38.3416 32.5693 38.5686 32.6895 38.7283 32.8792C36.766 33.665 34.7505 34.3111 32.697 34.8125C31.9314 34.9605 29.0762 35.2678 24.6564 35.6782C24.3227 35.7015 23.9926 35.597 23.7332 35.3858C23.4738 35.1746 23.3045 34.8726 23.2597 34.5411C23.2148 34.2096 23.2979 33.8735 23.4919 33.601C23.6859 33.3285 23.9764 33.1401 24.3043 33.074L28.5856 32.3105C31.797 31.7375 31.5325 27.1417 31.5189 26.9448C31.5117 26.8352 31.4814 26.7284 31.4301 26.6313C31.3787 26.5342 31.3075 26.449 31.2209 26.3814C31.1344 26.3137 31.0346 26.2651 30.928 26.2387C30.8213 26.2123 30.7104 26.2087 30.6023 26.2282L21.0283 27.9365C20.9893 27.9434 20.951 27.9535 20.9137 27.9667L13.9908 30.3125L1.07413 25.1938C0.978098 25.1524 0.874728 25.1306 0.770146 25.1299C0.665563 25.1292 0.561898 25.1494 0.465295 25.1895C0.368692 25.2296 0.281119 25.2886 0.207768 25.3632C0.134416 25.4377 0.0767791 25.5263 0.0382742 25.6235C-0.000230694 25.7207 -0.0188197 25.8247 -0.0163908 25.9293C-0.0139619 26.0338 0.00943547 26.1368 0.0524142 26.2322C0.0953929 26.3275 0.157078 26.4133 0.233812 26.4843C0.310547 26.5554 0.400768 26.6103 0.499127 26.6459L13.6825 31.875C13.8551 31.9416 14.0455 31.946 14.221 31.8875L21.3606 29.4657L29.9398 27.9334C29.8595 28.9657 29.5356 30.5542 28.3116 30.773L24.0293 31.5365C23.2987 31.6675 22.6469 32.0756 22.2099 32.6756C21.773 33.2756 21.5847 34.0212 21.6842 34.7568C21.7838 35.4923 22.1637 36.161 22.7444 36.6233C23.3252 37.0855 24.0621 37.3056 24.8012 37.2375C27.9637 36.9438 31.9522 36.5521 32.995 36.35C35.946 35.5853 38.8376 34.6074 41.647 33.424C41.767 33.3752 41.8957 33.3514 42.0252 33.3541C42.1547 33.3568 42.2823 33.3859 42.4002 33.4396C42.5689 33.5143 42.7129 33.6354 42.8154 33.7888C42.918 33.9422 42.9749 34.1215 42.9795 34.306C42.9841 34.4904 42.9362 34.6724 42.8413 34.8307C42.7465 34.989 42.6087 35.117 42.4439 35.2L34.2356 39.3563L27.1356 40.0563C26.9284 40.0662 26.7336 40.1581 26.5941 40.3116C26.4547 40.4652 26.3819 40.6678 26.3918 40.875C26.4018 41.0822 26.4936 41.277 26.6472 41.4165C26.8007 41.556 27.0034 41.6287 27.2106 41.6188C27.2363 41.6203 27.262 41.6203 27.2877 41.6188L34.5345 40.9053C34.6311 40.896 34.7251 40.8688 34.8116 40.825L40.9168 37.7323L41.1835 38.0917C41.2434 38.172 41.2857 38.264 41.3077 38.3617C41.3297 38.4595 41.3309 38.5607 41.3113 38.6589C41.2916 38.7572 41.2516 38.8502 41.1937 38.9319C41.1358 39.0136 41.0613 39.0823 40.9752 39.1334L35.9116 42.1896L31.521 43.2917C31.3367 43.3384 31.1757 43.4508 31.0683 43.6077C30.9609 43.7646 30.9144 43.9553 30.9375 44.144C30.9606 44.3328 31.0518 44.5066 31.1939 44.6329C31.3361 44.7593 31.5194 44.8294 31.7095 44.8302C31.7762 44.8261 31.8421 44.8131 31.9054 44.7917L36.4095 43.6615C36.4829 43.6419 36.5531 43.6117 36.6179 43.5719L40.1783 41.4219C40.289 41.6906 40.2955 41.9909 40.1965 42.2641C40.0975 42.5373 39.9 42.7637 39.6429 42.899L34.1668 45.8032C32.9783 45.9615 24.1866 47.0709 20.5366 45.7282C18.0033 44.7969 11.6575 39.8177 11.5939 39.7667C11.4509 39.6533 11.2722 39.5942 11.0898 39.6L0.762669 39.8803C0.659837 39.8828 0.55852 39.9056 0.464518 39.9474C0.370516 39.9892 0.285675 40.0491 0.21485 40.1237C0.144026 40.1983 0.0886082 40.2861 0.0517704 40.3821C0.0149326 40.4782 -0.00260252 40.5805 0.00016886 40.6834C0.0101138 40.8891 0.099262 41.0831 0.248956 41.2246C0.39865 41.3662 0.597286 41.4443 0.803294 41.4428L10.8481 41.1688C12.0377 42.0938 17.4866 46.273 19.9939 47.1959C21.971 47.7695 24.0274 48.0221 26.0845 47.9438C28.9071 47.916 31.7251 47.7115 34.522 47.3313C34.6113 47.3193 34.6978 47.2914 34.7773 47.249L40.3845 44.2813C40.9853 43.9653 41.4464 43.4365 41.6776 42.7984C41.9088 42.1602 41.8935 41.4587 41.6345 40.8313L41.5418 40.6042L41.7908 40.4542C42.0624 40.2904 42.2968 40.0715 42.4789 39.8118C42.6609 39.552 42.7867 39.2571 42.8481 38.9459C42.9095 38.6347 42.9052 38.3141 42.8354 38.0046C42.7656 37.6952 42.6319 37.4037 42.4429 37.149L42.3387 37.0053L43.1575 36.5886C43.7111 36.3076 44.1425 35.8335 44.3704 35.256C44.5982 34.6785 44.6066 34.0375 44.3939 33.4542C44.2774 33.134 44.097 32.8408 43.8636 32.5924C43.6303 32.3441 43.349 32.1457 43.0366 32.0094Z" stroke="#2487CE" mask="url(#path-2-outside-1_66_400)"/>
<path d="M13.7777 18.5764L13.7775 18.5762L0.0347793 4.18143L0.0347123 4.18136C-0.154161 3.98338 -0.256647 3.71847 -0.250202 3.44491C-0.243756 3.17136 -0.128906 2.91157 0.0690824 2.7227C0.167116 2.62918 0.282611 2.55588 0.408971 2.507C0.535331 2.45811 0.670083 2.43459 0.805532 2.43779C0.940982 2.44098 1.07448 2.47082 1.19839 2.5256C1.32229 2.58037 1.43418 2.65901 1.5277 2.75702C1.52771 2.75704 1.52773 2.75705 1.52775 2.75707L15.0237 16.896L22.1878 17.9615L22.192 17.9621L22.192 17.9622C22.2417 17.9704 22.2909 17.982 22.3391 17.9969L13.7777 18.5764ZM13.7777 18.5764C13.9362 18.7421 14.1451 18.8506 14.3717 18.8851L14.3726 18.8853L21.8102 19.9908L29.8086 22.4483C29.5629 22.8079 29.2549 23.1864 28.9063 23.4681C28.4675 23.8227 28.0039 23.9946 27.5284 23.8489L27.5284 23.8489L23.3639 22.574C23.3639 22.5739 23.3639 22.5739 23.3638 22.5739C23.3638 22.5739 23.3638 22.5739 23.3638 22.5739C22.788 22.3974 22.1735 22.3906 21.594 22.5546C21.0144 22.7186 20.4945 23.0462 20.0965 23.4983C19.6985 23.9504 19.4394 24.5078 19.3503 25.1034C19.2612 25.6991 19.3458 26.3078 19.5941 26.8566L19.5941 26.8567C19.65 26.9801 19.7296 27.0913 19.8285 27.1839C19.9273 27.2766 20.0435 27.3488 20.1702 27.3966C20.297 27.4443 20.4319 27.4666 20.5673 27.4622C20.7027 27.4578 20.836 27.4268 20.9594 27.3709C21.0828 27.315 21.1939 27.2354 21.2866 27.1365C21.3792 27.0377 21.4515 26.9216 21.4992 26.7948C21.5469 26.668 21.5693 26.5331 21.5649 26.3977C21.5605 26.2623 21.5294 26.1291 21.4736 26.0057C21.3664 25.768 21.3496 25.4994 21.4264 25.2502C21.5096 24.9803 21.6966 24.7545 21.9463 24.6224C22.1959 24.4903 22.4878 24.4627 22.7577 24.5457C22.7578 24.5457 22.7578 24.5457 22.7578 24.5457L26.914 25.8238L26.9141 25.8238C28.6097 26.3444 29.9507 25.4463 30.8426 24.464C31.7369 23.479 32.2372 22.3524 32.2799 22.2552L32.2801 22.2548C32.3384 22.1214 32.3678 21.9772 32.3664 21.8316C32.365 21.686 32.3327 21.5424 32.2718 21.4102C32.2109 21.2779 32.1227 21.1601 32.013 21.0644C31.9033 20.9688 31.7746 20.8975 31.6354 20.8551C31.6354 20.8551 31.6353 20.8551 31.6352 20.855L22.3394 17.997L13.7777 18.5764Z" fill="#2487CE" stroke="#2487CE" stroke-width="0.5"/>
<path d="M9.46651 25.9775C9.52556 26.0994 9.56002 26.2317 9.56793 26.3669C9.57583 26.5021 9.55704 26.6375 9.5126 26.7655C9.46817 26.8934 9.39897 27.0113 9.30897 27.1125C9.21896 27.2137 9.1099 27.2962 8.98802 27.3552C8.86613 27.4143 8.73382 27.4487 8.59862 27.4566C8.46342 27.4646 8.32799 27.4458 8.20005 27.4013C8.07212 27.3569 7.95419 27.2877 7.85299 27.1977C7.75183 27.1077 7.66937 26.9987 7.61033 26.8768C7.33552 26.3101 7.11832 25.8484 6.98068 25.5541L0.364919 22.6179C0.239642 22.5646 0.126149 22.4871 0.0309912 22.3897C-0.0647247 22.2917 -0.139972 22.1757 -0.19036 22.0484C-0.240747 21.921 -0.265265 21.7849 -0.262482 21.648C-0.2597 21.5111 -0.229673 21.3761 -0.174153 21.2509C-0.118634 21.1257 -0.0387351 21.0128 0.0608816 20.9188C0.160497 20.8248 0.277835 20.7517 0.406046 20.7035C0.534257 20.6554 0.670772 20.6332 0.807625 20.6384C0.943705 20.6436 1.07741 20.6757 1.20102 20.7328L8.17048 23.8254C8.17058 23.8255 8.17069 23.8255 8.17079 23.8256C8.40061 23.927 8.58522 24.1091 8.68968 24.3375L8.69055 24.3393L8.69392 24.3465L8.70485 24.3701L8.746 24.4589C8.7819 24.5363 8.83452 24.6494 8.90185 24.793C9.03652 25.0801 9.23007 25.489 9.46651 25.9775ZM9.46651 25.9775C9.46652 25.9775 9.46654 25.9775 9.46655 25.9776L9.24152 26.0865L9.46651 25.9775Z" fill="#2487CE" stroke="#2487CE" stroke-width="0.5"/>
<path d="M34.0345 23.4826C34.2279 23.676 34.4902 23.7846 34.7637 23.7846C35.0372 23.7846 35.2995 23.676 35.4929 23.4826C35.6863 23.2892 35.7949 23.0269 35.7949 22.7534V18.0586C35.7949 17.7851 35.6863 17.5228 35.4929 17.3294C35.2995 17.136 35.0372 17.0273 34.7637 17.0273C34.4902 17.0273 34.2279 17.136 34.0345 17.3294C33.8411 17.5228 33.7324 17.7851 33.7324 18.0586V22.7534C33.7324 23.0269 33.8411 23.2892 34.0345 23.4826Z" fill="#2487CE" stroke="#2487CE" stroke-width="0.5"/>
<path d="M40.7008 28.3145L40.6051 28.0835L40.7008 28.3145C40.8259 28.2626 40.9396 28.1867 41.0354 28.0909C41.1311 27.9952 41.2071 27.8815 41.2589 27.7564C41.3107 27.6312 41.3374 27.4971 41.3374 27.3617V18.0586C41.3374 17.7851 41.2288 17.5228 41.0354 17.3294C40.842 17.136 40.5797 17.0273 40.3062 17.0273C40.0326 17.0273 39.7703 17.136 39.5769 17.3294C39.3836 17.5228 39.2749 17.7851 39.2749 18.0586V27.3617C39.2749 27.6352 39.3836 27.8975 39.5769 28.0909C39.7703 28.2843 40.0326 28.393 40.3062 28.393C40.4416 28.393 40.5757 28.3663 40.7008 28.3145Z" fill="#2487CE" stroke="#2487CE" stroke-width="0.5"/>
<path d="M36.4988 29.6996C36.6922 29.893 36.9545 30.0017 37.228 30.0017C37.5015 30.0017 37.7638 29.893 37.9572 29.6996C38.1506 29.5062 38.2593 29.2439 38.2593 28.9704V27.0527C38.2593 26.7792 38.1506 26.5169 37.9572 26.3235C37.7638 26.1301 37.5015 26.0215 37.228 26.0215C36.9545 26.0215 36.6922 26.1301 36.4988 26.3235C36.3054 26.5169 36.1968 26.7792 36.1968 27.0527V28.9704C36.1968 29.2439 36.3054 29.5063 36.4988 29.6996Z" fill="#2487CE" stroke="#2487CE" stroke-width="0.5"/>
<path d="M38.2593 24.7932H38.2593V24.7919V24.5439C38.2593 24.2704 38.1506 24.0081 37.9572 23.8147C37.7638 23.6213 37.5015 23.5127 37.228 23.5127C36.9545 23.5127 36.6922 23.6213 36.4988 23.8147C36.3054 24.0081 36.1968 24.2704 36.1968 24.5439V24.7877C36.1968 25.0612 36.3054 25.3235 36.4988 25.5169C36.6922 25.7103 36.9545 25.8189 37.228 25.8189C37.5006 25.8189 37.7621 25.7111 37.9553 25.5188C38.1485 25.3266 38.2578 25.0657 38.2593 24.7932Z" fill="#2487CE" stroke="#2487CE" stroke-width="0.5"/>
</g>
<defs>
<clipPath id="clip0_66_400">
<rect width="50" height="50" fill="white"/>
</clipPath>
</defs>
</svg>
