<svg width="52" height="50" viewBox="0 0 52 50" fill="none" xmlns="http://www.w3.org/2000/svg">
<g clip-path="url(#clip0_29_1635)">
<path fill-rule="evenodd" clip-rule="evenodd" d="M30.829 0.482428C30.3941 0.484024 30.0422 0.835759 30.0407 1.27072V2.12695C28.9621 2.30783 28.1241 3.24679 28.1241 4.37275V5.47644C28.1241 6.60239 28.9621 7.54802 30.0407 7.72995V8.57854C30.0423 9.01346 30.3941 9.36684 30.829 9.36833C31.2662 9.36993 31.622 9.01576 31.6235 8.57854V7.76703H32.7101V16.9095C32.7101 17.4632 32.2761 17.8972 31.7224 17.8972H20.4778C19.6812 17.8972 18.8947 17.9767 18.1176 18.0996V15.6699C18.9457 15.49 19.6627 15.0274 20.1888 14.3978H26.1148C26.7401 14.3978 27.3374 14.1508 27.7794 13.7085C28.2214 13.2666 28.4688 12.6622 28.4688 12.0377C28.4688 11.4132 28.2217 10.8154 27.7794 10.373C27.337 9.93031 26.7391 9.67743 26.1148 9.67743H20.2305C19.5428 8.82358 18.5023 8.26315 17.3278 8.26315C16.1534 8.26315 15.1128 8.82383 14.4235 9.67743H8.5423C7.92057 9.67743 7.3191 9.92807 6.87764 10.3668C6.43393 10.8093 6.1821 11.4132 6.1821 12.0377C6.1821 12.6622 6.43461 13.2665 6.87764 13.7085C7.31867 14.1474 7.91867 14.3978 8.5423 14.3978H11.4868C11.9217 14.3962 12.2735 14.0445 12.275 13.6095C12.2766 13.1723 11.924 12.8166 11.4868 12.8151H8.5423C8.33688 12.8151 8.13938 12.7324 7.9936 12.5864C7.84782 12.4411 7.76484 12.2441 7.76484 12.0377C7.76484 11.8313 7.84851 11.6337 7.9936 11.489C8.13881 11.3437 8.33573 11.2602 8.5423 11.2602H13.6553V11.2618C13.6051 11.5053 13.5781 11.757 13.578 12.0145C13.578 13.8023 14.8507 15.3029 16.5333 15.67V18.4367C14.0072 19.1196 11.6745 20.437 9.7927 22.3194C6.96017 25.1519 5.3706 28.9986 5.3706 33.0045V42.4499H4.21909V41.6383C4.21751 41.2034 3.86574 40.85 3.43081 40.8485C2.9936 40.8469 2.63786 41.2011 2.63635 41.6383V42.4931C1.58049 42.6943 0.766113 43.6309 0.766113 44.7405V45.8441C0.766113 46.9537 1.58049 47.8852 2.63635 48.0854V48.9462C2.63793 49.3835 2.9936 49.7362 3.43081 49.7345C3.86574 49.7329 4.2176 49.3812 4.21909 48.9462V48.1286H11.7727V48.9462C11.7743 49.3812 12.126 49.733 12.561 49.7345C12.9982 49.7361 13.3539 49.3835 13.3554 48.9462V48.1286H20.3835V48.9462C20.3851 49.3812 20.7368 49.733 21.1718 49.7345C21.609 49.7361 21.9647 49.3835 21.9662 48.9462V48.1116C23.1443 48.0257 24.093 47.0421 24.093 45.8441V44.7405C24.093 43.5425 23.1443 42.5532 21.9662 42.4669V41.6384C21.9646 41.2012 21.609 40.8469 21.1718 40.8486C20.7368 40.8502 20.385 41.2035 20.3835 41.6384V42.4499H19.4901V33.0044C19.4901 32.7427 19.5913 32.4874 19.776 32.3027C19.9608 32.1179 20.215 32.0168 20.4778 32.0168H31.7224C40.0559 32.0168 46.8295 25.2431 46.8295 16.9096V7.7671H47.9161V8.57854C47.9177 9.01574 48.2734 9.37013 48.7106 9.36841C49.1455 9.36681 49.4974 9.01343 49.4989 8.57854V7.72995C50.5775 7.54809 51.4155 6.60239 51.4155 5.47644V4.37282C51.4155 3.24682 50.5775 2.30803 49.4989 2.12703V1.27072C49.4973 0.835759 49.1455 0.483925 48.7106 0.482428C48.2734 0.480833 47.9176 0.833501 47.9161 1.27072V2.08838H40.5619V1.27072C40.5603 0.835759 40.207 0.483925 39.7721 0.482428C39.3349 0.480833 38.9791 0.833501 38.9776 1.27072V2.08838H31.6234V1.27072C31.6219 0.833501 31.2662 0.480686 30.829 0.482428H30.829ZM30.4148 3.67261H49.1249C49.5231 3.67261 49.8328 3.97448 49.8328 4.37275V5.47644C49.8328 5.87469 49.5231 6.18429 49.1249 6.18429H30.4148C30.0165 6.18429 29.7069 5.87469 29.7069 5.47644V4.37275C29.7069 3.97448 30.0165 3.67261 30.4148 3.67261ZM34.2928 7.76703H38.9777V8.57854C38.9793 9.01576 39.3349 9.37008 39.7721 9.36833C40.2071 9.36676 40.5605 9.01346 40.562 8.57854V7.76703H45.2468V16.9095C45.2468 24.3876 39.2005 30.434 31.7224 30.434H28.1535V19.48H31.7224C33.1313 19.48 34.2928 18.3184 34.2928 16.9095V7.76703ZM17.3278 9.84745C18.5329 9.84745 19.4901 10.8094 19.4901 12.0145C19.4901 13.2197 18.533 14.1752 17.3278 14.1752C16.1226 14.1752 15.1608 13.2197 15.1608 12.0145C15.1608 10.8094 16.1226 9.84745 17.3278 9.84745ZM20.9971 11.2602H26.1148C26.3214 11.2602 26.5126 11.3444 26.6573 11.489C26.8023 11.634 26.8861 11.8312 26.8861 12.0377C26.8861 12.2441 26.8026 12.441 26.6573 12.5863C26.5121 12.7316 26.3204 12.815 26.1148 12.815H20.9817C21.0387 12.5563 21.0729 12.2897 21.0729 12.0145C21.0729 11.7569 21.0472 11.5036 20.9971 11.2602L20.9971 11.2602ZM20.4778 19.48H26.5707V30.434H20.4778C19.7972 30.434 19.1417 30.705 18.6601 31.1867C18.1785 31.6683 17.9074 32.3243 17.9074 33.0044V35.8314H6.95338V33.0044C6.95338 29.4178 8.37719 25.976 10.9133 23.4399C13.4494 20.9031 16.8903 19.48 20.4778 19.48ZM6.95338 37.4141H17.9074V42.4498H13.3554V41.6384C13.3539 41.2012 12.9982 40.8468 12.561 40.8485C12.1261 40.8501 11.7742 41.2035 11.7727 41.6384V42.4498H6.95338V37.4141ZM3.05679 44.0326H21.804C22.2022 44.0326 22.5103 44.3422 22.5103 44.7405V45.8441C22.5103 46.2424 22.2022 46.5443 21.804 46.5443H3.05679C2.65854 46.5443 2.35043 46.2424 2.35043 45.8441V44.7405C2.35043 44.3422 2.65854 44.0326 3.05679 44.0326Z" fill="#2487CE" stroke="#2487CE"/>
</g>
<defs>
<clipPath id="clip0_29_1635">
<rect width="51.2987" height="50" fill="white" transform="translate(0.333008)"/>
</clipPath>
</defs>
</svg>
