<svg width="63" height="50" viewBox="0 0 63 50" fill="none" xmlns="http://www.w3.org/2000/svg">
<path d="M26.3971 47.8248V30.4381L30.7629 17.5705C30.865 17.2131 31.0693 16.9067 31.3757 16.6514C31.682 16.3961 32.1161 16.2684 32.6778 16.2684H55.8855C56.4472 16.2684 56.8684 16.3833 57.1493 16.6131C57.4301 16.8429 57.6471 17.162 57.8003 17.5705L62.1661 30.4381V47.8248C62.1661 48.2844 62.0002 48.6801 61.6683 49.012C61.3363 49.3439 60.9406 49.5098 60.4811 49.5098H58.796C58.3365 49.5098 57.9407 49.3439 57.6088 49.012C57.2769 48.6801 57.111 48.2844 57.111 47.8248V44.3781H31.4523V47.8248C31.4523 48.2844 31.2863 48.6801 30.9544 49.012C30.6225 49.3439 30.2268 49.5098 29.7672 49.5098H28.0822C27.6226 49.5098 27.2269 49.3439 26.895 49.012C26.5631 48.6801 26.3971 48.2844 26.3971 47.8248ZM30.4566 28.1404H58.1067L55.1961 19.3321H33.3671L30.4566 28.1404ZM29.4608 31.2041V41.3144V31.2041ZM34.5926 39.3229C35.4606 39.3229 36.1755 39.0421 36.7372 38.4804C37.2989 37.9187 37.5797 37.2039 37.5797 36.3358C37.5797 35.4678 37.2989 34.7529 36.7372 34.1912C36.1755 33.6295 35.4606 33.3487 34.5926 33.3487C33.7245 33.3487 33.0097 33.6295 32.448 34.1912C31.8863 34.7529 31.6054 35.4678 31.6054 36.3358C31.6054 37.2039 31.8863 37.9187 32.448 38.4804C33.0097 39.0421 33.7245 39.3229 34.5926 39.3229ZM53.9706 39.3229C54.8387 39.3229 55.5536 39.0421 56.1153 38.4804C56.6769 37.9187 56.9578 37.2039 56.9578 36.3358C56.9578 35.4678 56.6769 34.7529 56.1153 34.1912C55.5536 33.6295 54.8387 33.3487 53.9706 33.3487C53.1026 33.3487 52.3877 33.6295 51.826 34.1912C51.2644 34.7529 50.9835 35.4678 50.9835 36.3358C50.9835 37.2039 51.2644 37.9187 51.826 38.4804C52.3877 39.0421 53.1026 39.3229 53.9706 39.3229ZM7.32542 49.5098V47.9014L11.6912 43.5356C8.78069 43.5356 6.25312 42.6548 4.10851 40.8931C1.96391 39.1315 0.891602 36.872 0.891602 34.1146V8.99207C0.891602 5.62197 2.21922 3.36248 4.87444 2.21358C7.52967 1.06468 12.7891 0.490234 20.6526 0.490234C27.9545 0.490234 33.0735 1.11575 36.0096 2.36677C38.9456 3.61779 40.4137 5.82622 40.4137 8.99207V13.9706H35.8181V8.07295H5.48719V28.6765H24.0993V49.5098H7.32542ZM9.39344 37.1017C10.2615 37.1017 10.9764 36.8209 11.538 36.2592C12.0997 35.6975 12.3806 34.9827 12.3806 34.1146C12.3806 33.2466 12.0997 32.5317 11.538 31.97C10.9764 31.4083 10.2615 31.1275 9.39344 31.1275C8.52538 31.1275 7.81051 31.4083 7.24883 31.97C6.68715 32.5317 6.40631 33.2466 6.40631 34.1146C6.40631 34.9827 6.68715 35.6975 7.24883 36.2592C7.81051 36.8209 8.52538 37.1017 9.39344 37.1017ZM29.4608 41.3144H59.1024V31.2041H29.4608V41.3144Z" fill="#2487CE"/>
</svg>
