<svg width="38" height="50" viewBox="0 0 38 50" fill="none" xmlns="http://www.w3.org/2000/svg">
<g clip-path="url(#clip0_29_1638)">
<path d="M37.2459 14.0244C37.0427 13.6857 36.8056 13.5163 36.5345 13.5163H31.3516V2.03252C31.3516 1.49055 31.1483 1.01626 30.7418 0.609756C30.3353 0.203252 29.8442 0 29.2683 0C28.6923 0 28.2012 0.203252 27.7947 0.609756C27.3882 1.01626 27.1849 1.49055 27.1849 2.03252V13.5163H10.5183V2.03252C10.5183 1.49055 10.315 1.01626 9.9085 0.609756C9.502 0.203252 9.01084 0 8.43493 0C7.85901 0 7.36785 0.203252 6.96135 0.609756C6.55485 1.01626 6.35159 1.49055 6.35159 2.03252V13.5163H1.16867C0.897631 13.5163 0.643566 13.6857 0.406472 14.0244C0.169379 14.3631 0.0507812 14.7019 0.0507812 15.0407V20.0203C0.0507812 21.3076 0.592753 22.8659 1.6768 24.6951C2.76084 26.5244 3.96338 28.252 5.28452 29.878C6.60566 31.5041 7.8082 33.4858 8.89224 35.8232C9.97629 38.1606 10.5183 40.4133 10.5183 42.5813V45.8333H14.6849V50H23.0183V45.8333H27.1849V42.5813C27.1849 40.4133 27.7269 38.1606 28.8109 35.8232C29.895 33.4858 31.0806 31.5041 32.3679 29.878C33.6552 28.252 34.8407 26.5244 35.9248 24.6951C37.0088 22.8659 37.5508 21.3076 37.5508 20.0203V15.0407C37.5508 14.7014 37.4492 14.3626 37.2459 14.0244ZM24.5427 27.439C18.9871 34.6206 16.1415 38.2792 16.0061 38.4146C15.9383 38.5501 15.8875 38.584 15.8536 38.5163C15.8198 38.4485 15.8028 38.3469 15.8028 38.2114L17.7337 30.5894C17.8015 30.3184 17.6999 30.1829 17.4288 30.1829H13.3638C13.0928 30.1829 13.0251 30.0813 13.1605 29.878C18.7161 22.832 21.5617 19.2412 21.6971 19.1057C21.7649 19.0379 21.8157 19.0041 21.8496 19.0041C21.8834 19.0041 21.9004 19.0718 21.9004 19.2073L20.0711 26.7276C19.9356 26.9309 20.0033 27.0325 20.2744 27.0325H24.3394C24.6781 27.0325 24.7459 27.168 24.5427 27.439Z" fill="#2487CE"/>
</g>
<defs>
<clipPath id="clip0_29_1638">
<rect width="37.6016" height="50" fill="white"/>
</clipPath>
</defs>
</svg>
