<svg width="73" height="50" viewBox="0 0 73 50" fill="none" xmlns="http://www.w3.org/2000/svg">
<path d="M56.6672 24.9999C56.6672 36.5035 47.3419 45.8288 35.8383 45.8288C24.3347 45.8288 15.0094 36.5035 15.0094 24.9999C15.0094 13.4964 24.3347 4.171 35.8383 4.171C47.3419 4.171 56.6672 13.4964 56.6672 24.9999ZM35.8383 49.495C49.3665 49.495 60.3333 38.5281 60.3333 24.9999C60.3333 11.4717 49.3665 0.504883 35.8383 0.504883C22.3101 0.504883 11.3433 11.4717 11.3433 24.9999C11.3433 38.5281 22.3101 49.495 35.8383 49.495Z" fill="#2487CE" stroke="#2487CE"/>
<path d="M15.6758 15.002V14.502H15.1758H2.51177C1.49941 14.502 0.678711 15.3226 0.678711 16.335C0.678711 17.3474 1.49941 18.1681 2.51177 18.1681H15.1758H15.6758V17.6681V15.002ZM56.6671 17.6681V18.1681H57.1671H69.1646C70.177 18.1681 70.9977 17.3474 70.9977 16.335C70.9977 15.3226 70.177 14.502 69.1646 14.502H57.1671H56.6671V15.002V17.6681ZM15.0093 30.3321V29.8321H14.5093H2.51177C1.49941 29.8321 0.678711 30.6528 0.678711 31.6652C0.678711 32.6776 1.49941 33.4982 2.51177 33.4982H14.5093H15.0093V32.9982V30.3321ZM57.3337 32.9982V33.4982H57.8337H69.1646C70.177 33.4982 70.9977 32.6776 70.9977 31.6652C70.9977 30.6528 70.177 29.8321 69.1646 29.8321H57.8337H57.3337V30.3321V32.9982Z" fill="#2487CE" stroke="#2487CE"/>
<path fill-rule="evenodd" clip-rule="evenodd" d="M19.8413 17.0021C19.8413 15.5296 21.0349 14.3359 22.5074 14.3359C23.9799 14.3359 25.1735 15.5296 25.1735 17.0021V21.0012C25.1735 22.4737 23.9799 23.6673 22.5074 23.6673C21.0349 23.6673 19.8413 22.4737 19.8413 21.0012V17.0021Z" fill="#2487CE"/>
<path fill-rule="evenodd" clip-rule="evenodd" d="M26.5068 17.0021C26.5068 15.5296 27.7005 14.3359 29.173 14.3359C30.6454 14.3359 31.8391 15.5296 31.8391 17.0021V21.0012C31.8391 22.4737 30.6454 23.6673 29.173 23.6673C27.7005 23.6673 26.5068 22.4737 26.5068 21.0012V17.0021Z" fill="#2487CE"/>
<path fill-rule="evenodd" clip-rule="evenodd" d="M33.1719 17.0021C33.1719 15.5296 34.3655 14.3359 35.838 14.3359C37.3105 14.3359 38.5041 15.5296 38.5041 17.0021V21.0012C38.5041 22.4737 37.3105 23.6673 35.838 23.6673C34.3655 23.6673 33.1719 22.4737 33.1719 21.0012V17.0021Z" fill="#2487CE"/>
<path fill-rule="evenodd" clip-rule="evenodd" d="M39.8374 17.0021C39.8374 15.5296 41.031 14.3359 42.5035 14.3359C43.976 14.3359 45.1696 15.5296 45.1696 17.0021V21.0012C45.1696 22.4737 43.976 23.6673 42.5035 23.6673C41.031 23.6673 39.8374 22.4737 39.8374 21.0012V17.0021Z" fill="#2487CE"/>
<path fill-rule="evenodd" clip-rule="evenodd" d="M46.5024 17.0021C46.5024 15.5296 47.6961 14.3359 49.1686 14.3359C50.6411 14.3359 51.8347 15.5296 51.8347 17.0021V21.0012C51.8347 22.4737 50.6411 23.6673 49.1686 23.6673C47.6961 23.6673 46.5024 22.4737 46.5024 21.0012V17.0021Z" fill="#2487CE"/>
<path fill-rule="evenodd" clip-rule="evenodd" d="M44.5032 31.6651C42.6626 31.6651 41.1705 33.1572 41.1705 34.9978C41.1705 36.8383 42.6626 38.3304 44.5032 38.3304C46.3437 38.3304 47.8358 36.8383 47.8358 34.9978C47.8358 33.1572 46.3437 31.6651 44.5032 31.6651ZM38.5044 34.9978C38.5044 31.6847 41.1901 28.999 44.5032 28.999C47.8162 28.999 50.5019 31.6847 50.5019 34.9978C50.5019 38.3108 47.8162 40.9965 44.5032 40.9965C41.1901 40.9965 38.5044 38.3108 38.5044 34.9978Z" fill="#2487CE"/>
<path fill-rule="evenodd" clip-rule="evenodd" d="M35.838 39.6632C35.1018 39.6632 34.505 40.26 34.505 40.9962C34.505 41.7325 35.1018 42.3293 35.838 42.3293C36.5743 42.3293 37.1711 41.7325 37.1711 40.9962C37.1711 40.26 36.5743 39.6632 35.838 39.6632ZM31.8389 40.9962C31.8389 38.7875 33.6293 36.9971 35.838 36.9971C38.0468 36.9971 39.8372 38.7875 39.8372 40.9962C39.8372 43.205 38.0468 44.9954 35.838 44.9954C33.6293 44.9954 31.8389 43.205 31.8389 40.9962Z" fill="#2487CE"/>
<path fill-rule="evenodd" clip-rule="evenodd" d="M27.8398 8.33696C27.8398 7.60072 28.4367 7.00391 29.1729 7.00391H42.5035C43.2397 7.00391 43.8365 7.60072 43.8365 8.33696C43.8365 9.07321 43.2397 9.67002 42.5035 9.67002H29.1729C28.4367 9.67002 27.8398 9.07321 27.8398 8.33696Z" fill="#2487CE"/>
</svg>
