<svg width="49" height="50" viewBox="0 0 49 50" fill="none" xmlns="http://www.w3.org/2000/svg">
<g clip-path="url(#clip0_29_1388)">
<path d="M4.11721 49.8014C3.12515 49.8014 2.25709 49.4294 1.51304 48.6853C0.768996 47.9413 0.396973 47.0732 0.396973 46.0812V3.91848C0.396973 2.92642 0.768996 2.05836 1.51304 1.31431C2.25709 0.570266 3.12515 0.198242 4.11721 0.198242H25.1986L40.0795 15.0792V24.7518H36.3593V17.5594H22.7184V3.91848H4.11721V46.0812H22.7184V49.8014H4.11721ZM4.11721 46.0812V3.91848V46.0812ZM37.3513 32.2543L39.0875 33.9904L28.9188 44.1591V47.3213H32.081L42.2497 37.1526L43.9858 38.8887L33.0731 49.8014H26.4386V43.167L37.3513 32.2543ZM43.9858 38.8887L37.3513 32.2543L41.1336 28.4721C41.5056 28.1 41.9396 27.914 42.4357 27.914C42.9317 27.914 43.3657 28.1 43.7377 28.4721L47.768 32.5023C48.14 32.8743 48.326 33.3084 48.326 33.8044C48.326 34.3004 48.14 34.7345 47.768 35.1065L43.9858 38.8887Z" fill="#2487CE"/>
</g>
<defs>
<clipPath id="clip0_29_1388">
<rect width="48.8095" height="50" fill="white"/>
</clipPath>
</defs>
</svg>
